<svg xmlns="http://www.w3.org/2000/svg" xmlns:xlink="http://www.w3.org/1999/xlink" width="1024" zoomAndPan="magnify" viewBox="0 0 768 767.999994" height="1024" preserveAspectRatio="xMidYMid meet" version="1.0"><defs><clipPath id="4d41339754"><path d="M 45.59375 363 L 622 363 L 622 673 L 45.59375 673 Z M 45.59375 363 " clip-rule="nonzero"/></clipPath></defs><path fill="#3871c1" d="M 548.140625 93.605469 C 538.164062 86.828125 524.726562 77.984375 514.382812 71.785156 L 503.605469 65.898438 C 415.652344 23.007812 328.195312 25.847656 324.515625 25.992188 C 322.015625 26.132812 318.683594 26.289062 316.183594 26.457031 C 371.152344 24.261719 482.339844 46.371094 548.140625 93.605469 " fill-opacity="1" fill-rule="nonzero"/><path fill="#3871c1" d="M 678.148438 275.769531 L 674.265625 263.863281 C 669.875 252.605469 663.976562 237.609375 658.953125 226.625 C 592.601562 109.847656 313.332031 62.019531 188.441406 70.175781 C 365.46875 73.011719 637.402344 152.597656 678.148438 275.769531 " fill-opacity="1" fill-rule="nonzero"/><path fill="#3871c1" d="M 675.355469 492.230469 C 679.574219 477.765625 684.691406 458.320312 687.863281 443.597656 L 689.554688 433.535156 C 700.425781 281.808594 333.8125 180.464844 90.785156 188.792969 C 405.160156 209.195312 721.949219 343.292969 675.355469 492.230469 " fill-opacity="1" fill-rule="nonzero"/><g clip-path="url(#4d41339754)"><path fill="#3871c1" d="M 539.175781 672.152344 C 550.539062 663.804688 565.347656 652.207031 576.128906 643.125 C 582.804688 636.679688 591.828125 628.207031 598.210938 621.480469 C 719.628906 478.65625 339.730469 359.644531 45.703125 363.460938 C 486.765625 404.074219 681.8125 561.550781 549.234375 664.851562 C 546.292969 667.144531 542.195312 669.960938 539.175781 672.152344 " fill-opacity="1" fill-rule="nonzero"/></g><path fill="#3871c1" d="M 339.289062 719.742188 C 390.289062 745.226562 485.011719 719.019531 490.179688 668.65625 C 497.261719 599.59375 282.398438 531.269531 79.636719 538.109375 C 366.292969 558.8125 501.269531 651.761719 437.53125 701.453125 C 414.890625 719.109375 368.0625 727.820312 339.289062 719.742188 " fill-opacity="1" fill-rule="nonzero"/></svg>